<?xml version="1.0" standalone="no"?>
<!DOCTYPE svg PUBLIC "-//W3C//DTD SVG 20010904//EN"
 "http://www.w3.org/TR/2001/REC-SVG-20010904/DTD/svg10.dtd">
<svg version="1.0" xmlns="http://www.w3.org/2000/svg"
 width="764.000000pt" height="198.000000pt" viewBox="0 0 764.000000 198.000000"
 preserveAspectRatio="xMidYMid meet">
<metadata>
Created by potrace 1.16, written by Peter Selinger 2001-2019
</metadata>
<g transform="translate(0.000000,198.000000) scale(0.100000,-0.100000)"
fill="#000000" stroke="none">
<path d="M554 1178 c-39 -19 -44 -49 -44 -279 l0 -221 -30 -30 c-26 -25 -36
-29 -62 -24 -43 8 -73 38 -87 87 -16 52 -66 78 -113 58 -35 -14 -48 -37 -48
-82 0 -97 87 -195 194 -221 17 -4 63 -4 103 -1 69 7 75 9 115 51 52 53 60 68
68 121 5 33 4 40 -5 33 -7 -6 -10 -21 -7 -35 3 -17 -4 -38 -22 -64 -58 -83
-83 -95 -206 -95 -103 1 -198 77 -221 179 -14 61 -3 91 38 101 47 12 75 -6 95
-61 10 -28 26 -56 35 -63 45 -32 100 -27 136 14 21 24 22 36 27 261 5 218 6
236 24 249 28 20 80 18 99 -4 12 -14 18 -40 19 -98 l2 -79 3 70 c5 90 -1 111
-37 130 -33 17 -46 18 -76 3z"/>
<path d="M753 1166 c-27 -24 -28 -27 -31 -143 -2 -65 0 -133 5 -151 5 -22 8
14 8 112 0 127 2 146 19 165 25 28 77 28 102 0 17 -19 19 -39 20 -168 4 -309
2 -287 30 -320 50 -60 148 -60 198 0 23 27 26 39 24 102 l-1 72 -7 -79 c-5
-65 -10 -82 -29 -97 -39 -32 -88 -40 -132 -22 -65 26 -69 42 -69 288 0 216 0
216 -25 240 -31 32 -75 32 -112 1z"/>
<path d="M1149 1161 l-29 -29 1 -129 c0 -70 3 -136 7 -145 4 -10 5 47 4 126
-4 135 -3 145 17 165 28 28 82 28 106 1 16 -17 19 -42 22 -167 1 -81 7 -151
13 -157 7 -7 10 3 10 31 0 23 4 44 8 47 5 3 12 56 15 117 7 115 19 148 56 150
11 0 12 2 3 6 -25 10 -61 -37 -68 -89 -8 -58 -16 -55 -24 10 -4 39 -11 50 -39
69 -45 30 -67 29 -102 -6z"/>
<path d="M2683 1180 c-27 -11 -43 -40 -43 -78 0 -17 -6 -32 -13 -35 -12 -5
-67 -107 -67 -124 1 -4 14 18 31 50 16 32 36 60 44 64 10 3 15 19 15 44 0 28
6 42 22 53 31 22 75 20 95 -4 37 -43 266 -588 261 -621 -2 -12 -15 -31 -30
-42 -49 -36 -76 -17 -128 90 -25 51 -48 93 -52 93 -4 0 0 -12 8 -27 8 -16 24
-54 35 -86 26 -72 51 -97 99 -97 45 0 80 33 80 75 0 26 -63 194 -105 280 -8
17 -44 98 -79 180 -36 83 -74 160 -85 173 -20 23 -50 27 -88 12z"/>
<path d="M3023 1178 c-12 -6 -29 -26 -38 -44 -21 -45 -13 -60 125 -209 l110
-120 -2 -146 c-3 -144 -2 -148 21 -173 33 -35 83 -35 117 -1 25 25 25 27 23
181 -2 145 0 156 18 169 11 8 66 64 122 125 85 93 101 115 101 142 -1 48 -40
88 -87 88 -10 0 -65 -50 -124 -112 -123 -130 -101 -130 -217 2 -95 110 -118
123 -169 98z m158 -103 c51 -53 97 -102 102 -110 4 -8 11 -15 16 -15 4 0 51
50 106 110 88 99 102 110 132 110 39 0 73 -29 73 -64 0 -36 -196 -266 -226
-266 -17 0 -17 6 -14 -170 2 -129 0 -148 -17 -167 -28 -33 -64 -38 -96 -13
l-28 22 2 149 1 149 -89 98 c-139 152 -153 171 -153 199 0 37 27 63 65 63 27
0 46 -14 126 -95z"/>
<path d="M3432 1033 c-92 -104 -107 -136 -67 -140 14 -1 48 30 113 104 92 104
107 136 67 140 -14 2 -47 -28 -113 -104z"/>
<path d="M5587 1170 c-15 -12 -28 -35 -32 -57 -4 -21 -13 -45 -21 -53 -17 -20
-77 -151 -71 -156 2 -3 17 24 32 60 15 36 38 75 51 87 16 15 24 34 24 54 0 39
26 65 67 65 49 0 42 14 262 -484 21 -49 21 -49 42 -30 14 13 36 19 66 19 38 0
49 -5 74 -33 72 -81 -12 -201 -115 -162 -21 8 -37 7 -62 -2 -51 -18 -76 1
-115 88 -17 41 -34 73 -36 70 -8 -7 47 -130 69 -153 22 -23 70 -31 96 -14 7 4
30 3 51 -2 20 -6 50 -7 65 -3 35 9 76 52 83 88 3 15 8 28 10 28 3 0 21 -14 41
-31 20 -18 61 -44 92 -58 69 -32 177 -35 259 -7 62 21 141 91 141 125 0 18 9
13 56 -35 120 -119 265 -144 414 -69 113 58 189 202 177 338 -14 164 -103 283
-249 329 -85 27 -159 19 -240 -24 -134 -71 -211 -223 -194 -380 7 -61 -6 -81
-45 -71 -11 3 -42 -11 -76 -33 -49 -32 -66 -38 -110 -38 -43 0 -58 5 -90 30
-59 48 -78 88 -78 164 1 146 111 235 229 186 21 -9 53 -16 70 -16 59 0 95 66
65 121 -15 30 -106 69 -154 68 -24 -1 -30 -3 -15 -5 102 -16 170 -57 170 -105
0 -56 -59 -86 -113 -57 -69 36 -142 26 -199 -30 -68 -65 -86 -168 -44 -259 34
-72 89 -108 167 -108 48 0 64 5 102 32 64 46 110 44 136 -5 19 -35 -2 -76 -57
-112 -59 -39 -112 -54 -193 -54 -128 0 -253 89 -300 213 -31 83 -24 214 15
296 51 102 137 169 241 186 l50 8 -56 -4 c-103 -6 -190 -72 -242 -182 -28 -60
-32 -81 -37 -183 l-5 -115 -64 -8 c-49 -6 -68 -5 -78 6 -14 13 -118 245 -174
387 -16 41 -39 83 -50 93 -28 23 -70 22 -102 -3z m1510 -25 c63 -28 131 -95
161 -156 89 -183 20 -394 -156 -481 -57 -28 -77 -33 -138 -33 -126 1 -236 73
-296 194 -19 39 -23 62 -23 151 0 122 16 169 85 244 103 112 236 141 367 81z"/>
<path d="M6862 1115 c-60 -26 -108 -72 -143 -137 -30 -57 -33 -71 -34 -148 0
-68 5 -95 23 -135 28 -60 83 -119 136 -147 50 -26 143 -34 199 -18 64 17 135
76 171 140 29 51 31 62 31 155 0 89 -3 106 -27 151 -31 58 -84 108 -142 135
-50 23 -166 25 -214 4z m216 -21 c145 -72 204 -250 133 -400 -47 -99 -145
-164 -247 -164 -56 0 -137 37 -181 82 -101 105 -117 245 -43 375 68 119 219
167 338 107z"/>
<path d="M6886 1075 c-49 -17 -106 -73 -137 -133 -32 -63 -32 -178 -2 -237 42
-79 137 -144 214 -145 95 0 202 76 233 168 74 215 -107 419 -308 347z m183
-25 c83 -42 139 -153 128 -252 -9 -69 -52 -144 -106 -181 -89 -61 -214 -46
-286 35 -50 54 -67 101 -67 175 -1 185 175 303 331 223z"/>
<path d="M6955 1034 c-5 -1 -22 -5 -37 -8 -39 -9 -98 -64 -119 -111 -38 -82
-10 -211 55 -263 94 -73 227 -39 277 72 41 90 15 218 -55 271 -29 22 -98 45
-121 39z m108 -48 c101 -77 102 -237 3 -324 -37 -32 -53 -37 -116 -32 -66 4
-115 45 -146 119 -41 98 15 229 111 263 41 14 111 2 148 -26z"/>
<path d="M2201 1170 c48 -8 102 -32 132 -58 23 -20 22 -74 -1 -95 -25 -23 -56
-21 -119 5 -47 19 -57 20 -95 9 -53 -16 -113 -77 -127 -128 -31 -112 6 -220
89 -263 74 -38 167 -14 191 47 18 48 8 53 -95 53 -107 0 -132 12 -146 70 l-8
35 -1 -33 c-1 -23 7 -41 24 -57 22 -23 31 -25 125 -25 55 0 100 -2 100 -4 0
-23 -27 -65 -51 -78 -38 -22 -63 -23 -116 -1 -49 21 -68 49 -92 143 -15 56
-17 79 -8 111 13 51 64 104 115 120 34 10 45 8 87 -10 64 -28 110 -27 140 4
14 13 25 35 25 49 0 57 -94 118 -179 115 -34 -1 -34 -2 10 -9z"/>
<path d="M3970 1167 c113 -26 163 -81 123 -136 -26 -34 -62 -37 -128 -10 -47
20 -59 21 -93 11 -57 -17 -91 -48 -118 -106 -44 -94 -25 -194 49 -265 81 -77
227 -40 227 58 0 17 -10 19 -97 20 -124 3 -143 13 -143 77 0 26 -4 43 -9 39
-6 -3 -15 3 -20 14 -24 44 41 131 113 151 36 10 48 9 89 -9 58 -25 95 -27 124
-6 27 19 39 75 24 104 -17 30 -84 61 -144 67 l-52 4 55 -13z m-52 -435 l93 -3
-3 -31 c-5 -54 -81 -83 -145 -56 -38 16 -83 58 -83 78 0 23 11 32 29 23 9 -4
58 -9 109 -11z"/>
<path d="M566 1124 c-9 -24 -7 -397 3 -412 5 -8 17 -12 27 -10 18 3 19 17 22
198 1 107 0 205 -3 218 -6 26 -40 30 -49 6z m44 -210 c0 -190 -1 -205 -17
-202 -16 3 -18 21 -21 191 -2 181 5 236 29 222 5 -4 9 -93 9 -211z"/>
<path d="M2703 1133 c-7 -2 -13 -11 -13 -19 0 -21 239 -577 256 -594 12 -12
16 -12 30 1 14 15 4 42 -107 305 -67 159 -126 295 -132 302 -10 13 -14 13 -34
5z m57 -85 c18 -40 69 -158 112 -263 44 -104 86 -202 93 -217 9 -18 10 -30 3
-34 -16 -10 -26 6 -67 107 -22 52 -75 177 -119 279 -44 102 -78 188 -75 193
10 17 22 3 53 -65z"/>
<path d="M4457 1133 c-4 -3 -7 -15 -7 -25 0 -25 238 -580 252 -589 17 -11 38
1 38 20 0 18 -223 543 -246 579 -15 23 -26 27 -37 15z m55 -80 c62 -138 218
-504 218 -513 0 -6 -6 -10 -14 -10 -20 0 -263 570 -249 584 11 11 14 7 45 -61z"/>
<path d="M4846 1123 c-5 -12 49 -99 175 -287 229 -340 211 -315 232 -316 46 0
26 37 -168 326 -195 289 -222 321 -239 277z m105 -103 c295 -430 332 -490 300
-490 -5 0 -94 127 -197 283 -104 155 -193 285 -198 288 -10 8 2 31 14 27 5 -2
41 -50 81 -108z"/>
<path d="M5226 1125 c-9 -25 -7 -398 3 -413 5 -8 17 -12 27 -10 18 3 19 16 19
218 0 212 0 215 -21 218 -13 2 -24 -4 -28 -13z"/>
<path d="M5617 1133 c-4 -3 -7 -12 -7 -20 0 -24 241 -581 257 -595 13 -10 18
-9 29 6 11 16 11 24 0 50 -136 323 -232 544 -239 554 -10 13 -30 16 -40 5z
m48 -55 c9 -24 32 -77 51 -118 98 -221 174 -403 174 -415 0 -25 -19 -17 -35
15 -14 28 -75 173 -149 355 -18 44 -43 100 -54 124 -23 46 -28 81 -14 81 5 0
17 -19 27 -42z"/>
<path d="M1377 1124 c-10 -10 -8 -576 2 -592 5 -8 17 -12 27 -10 18 3 19 18
19 303 0 294 0 300 -20 303 -12 2 -24 0 -28 -4z"/>
<path d="M1454 1115 c-12 -31 7 -35 167 -35 l159 0 0 25 0 25 -160 0 c-131 0
-162 -3 -166 -15z"/>
<path d="M2045 1107 c-59 -28 -119 -92 -148 -156 -30 -67 -29 -188 1 -256 47
-104 133 -165 244 -173 91 -6 166 28 209 96 26 42 29 54 29 135 0 86 -1 88
-22 85 -21 -3 -24 -10 -29 -78 -3 -41 -12 -89 -21 -105 -35 -66 -150 -95 -236
-59 -121 50 -178 212 -118 339 50 109 162 165 256 130 65 -25 95 -25 95 -1 0
32 -58 59 -139 63 -60 3 -79 0 -121 -20z m174 3 c49 -14 85 -40 73 -52 -6 -6
-21 -4 -43 8 -48 26 -142 24 -194 -3 -127 -67 -175 -236 -106 -370 54 -105
181 -158 279 -118 78 33 104 73 111 174 4 46 11 76 19 79 9 3 12 -18 12 -81 0
-81 -2 -88 -33 -129 -112 -146 -367 -92 -432 92 -8 24 -15 77 -15 120 0 66 4
86 31 140 58 115 182 174 298 140z"/>
<path d="M3819 1117 c-200 -75 -255 -362 -100 -517 98 -98 252 -108 350 -23
53 44 73 100 69 188 -3 59 -6 70 -22 73 -27 6 -36 -15 -36 -89 0 -117 -61
-173 -182 -167 -55 3 -75 9 -109 33 -53 38 -97 115 -108 191 -7 48 -9 52 -10
21 -4 -133 119 -267 245 -267 16 0 52 11 80 24 69 32 91 70 97 166 4 58 9 76
21 78 13 3 16 -8 16 -68 0 -83 -15 -123 -61 -167 -117 -111 -315 -65 -397 91
-23 44 -27 63 -27 141 0 75 4 98 23 135 68 129 189 185 316 145 59 -19 85 -38
66 -50 -6 -4 -34 3 -63 15 -39 17 -63 21 -98 17 -55 -7 -116 -36 -142 -67 -30
-35 -67 -111 -66 -134 0 -12 6 -2 14 22 18 57 57 106 108 136 66 38 107 42
183 15 54 -19 67 -21 74 -9 4 7 6 19 3 26 -15 40 -174 67 -244 41z"/>
<path d="M6275 1107 c-58 -28 -109 -82 -139 -146 -31 -69 -29 -208 3 -275 32
-65 82 -113 149 -144 46 -21 65 -24 126 -20 95 6 186 54 186 99 0 29 -25 28
-68 -1 -97 -65 -209 -58 -286 16 -54 53 -76 105 -76 186 0 100 42 181 119 226
56 33 136 36 193 8 67 -32 93 5 35 48 -45 33 -175 35 -242 3z m195 3 c43 -12
78 -36 68 -46 -4 -4 -31 0 -59 9 -70 23 -125 21 -185 -7 -121 -56 -175 -219
-118 -356 35 -83 134 -150 222 -150 44 0 117 28 164 62 30 21 33 -1 4 -31 -37
-38 -129 -66 -196 -58 -97 12 -187 81 -226 173 -9 21 -16 69 -17 113 -1 65 3
84 28 134 68 137 183 194 315 157z"/>
<path d="M2652 1018 c-17 -22 -202 -458 -202 -477 0 -21 21 -33 38 -22 19 11
213 478 206 495 -7 19 -28 21 -42 4z m28 -22 c0 -8 -40 -108 -88 -222 -49
-115 -91 -217 -95 -226 -3 -10 -14 -18 -23 -18 -23 0 -16 21 72 222 42 95 85
192 95 216 18 41 39 56 39 28z"/>
<path d="M4402 1013 c-5 -10 -54 -121 -107 -246 -91 -212 -97 -230 -81 -245
14 -14 18 -14 30 -2 22 23 208 468 204 487 -5 24 -35 28 -46 6z m38 -8 c0 -13
-155 -387 -184 -443 -18 -35 -52 -46 -41 -13 3 11 42 102 86 203 45 101 88
200 96 221 9 20 22 37 30 37 7 0 13 -2 13 -5z"/>
<path d="M5561 1003 c-64 -139 -191 -446 -191 -461 0 -21 20 -34 37 -24 6 4
56 114 112 246 79 186 99 242 90 252 -18 21 -35 17 -48 -13z m39 -3 c0 -34
-191 -470 -206 -470 -8 0 -14 6 -14 13 0 11 81 203 173 410 23 50 47 75 47 47z"/>
<path d="M4844 947 c-2 -7 -3 -105 -2 -217 3 -191 4 -205 22 -208 10 -2 22 2
27 10 10 15 12 388 3 412 -7 19 -43 21 -50 3z m41 -50 c9 -70 2 -353 -8 -363
-4 -5 -12 -2 -17 6 -11 17 -14 393 -3 403 15 16 22 4 28 -46z"/>
<path d="M2387 880 c34 -14 45 -45 46 -133 1 -66 -3 -90 -20 -122 -93 -175
-339 -202 -484 -53 -40 41 -89 127 -89 157 0 8 -3 12 -6 8 -15 -15 31 -111 76
-161 117 -127 286 -148 428 -52 l50 33 7 -33 c3 -18 16 -40 28 -49 26 -18 76
-19 99 -1 18 13 72 125 65 132 -2 2 -15 -23 -30 -56 -17 -40 -34 -64 -52 -72
-34 -15 -75 -1 -94 34 -14 25 -13 33 21 120 20 51 48 120 62 153 15 33 20 51
11 41 -8 -11 -15 -25 -15 -31 0 -7 -8 -20 -19 -29 -17 -16 -19 -16 -25 6 -3
13 -6 33 -6 44 0 28 -37 74 -58 73 -13 0 -11 -3 5 -9z"/>
<path d="M1457 864 c-13 -13 -7 -42 9 -48 24 -9 237 -7 252 3 8 5 12 17 10 27
-3 17 -15 19 -134 22 -71 1 -133 -1 -137 -4z"/>
<path d="M787 834 c-4 -4 -7 -41 -7 -83 0 -91 24 -147 78 -184 53 -37 86 -47
150 -47 72 0 126 25 174 78 42 46 51 79 46 172 -3 57 -5 65 -23 65 -18 0 -21
-9 -26 -79 -7 -86 -22 -115 -79 -153 -47 -32 -143 -32 -190 0 -58 39 -73 69
-80 154 -4 59 -9 78 -20 81 -9 1 -19 0 -23 -4z m33 -68 c0 -102 28 -151 105
-187 80 -37 179 -12 232 58 22 29 28 49 33 112 7 99 25 95 24 -7 0 -91 -17
-131 -73 -167 -20 -14 -63 -31 -94 -37 -99 -21 -201 25 -238 106 -18 40 -27
165 -12 179 17 17 23 2 23 -57z"/>
<path d="M1508 763 c-28 -4 -28 -5 -28 -79 l0 -74 150 0 c148 0 151 0 176 -26
30 -29 27 -67 -8 -97 -19 -16 -42 -18 -220 -16 -234 2 -244 6 -251 87 l-3 47
-2 -52 c-2 -44 2 -54 23 -71 23 -18 42 -20 225 -21 214 -2 251 5 265 49 10 32
-4 79 -29 95 -20 14 -95 20 -273 24 l-43 1 0 49 c0 29 5 53 13 58 6 4 57 13
112 19 l100 11 -90 0 c-49 0 -102 -2 -117 -4z"/>
<path d="M231 716 c-9 -11 -9 -25 -1 -55 38 -141 224 -188 333 -84 28 28 36
68 15 76 -7 2 -32 -13 -55 -34 -47 -43 -96 -56 -147 -39 -42 14 -96 72 -96
103 0 22 -16 47 -31 47 -4 0 -12 -6 -18 -14z"/>
</g>
</svg>
